# xmcd
#
# Track frame offsets: 
#        150
#        17575
#        28018
#        43321
#        54663
#        66222
#        81631
#        98837
#        112214
#        127186
#        141594
#        156151
#
# Disc length: 2333 seconds
#
# Revision: 2
# Processed by: cddbd v1.5.2PL0 Copyright (c) Steve Scherf et al.
# Submitted via: ExactAudioCopy v1.3
#
DISCID=b8091b0c
DTITLE=Big Joe Williams - Blues On Highway 49
DYEAR=1961
DGENRE=Blues
TTITLE0=Highway 49
TTITLE1=Overhaul Your Machine
TTITLE2=Blues Left Texas
TTITLE3=No. 13 Highway
TTITLE4=Down in the Bottoms
TTITLE5=Poor Beggar
TTITLE6=That Thing's in Town
TTITLE7=Walk On, Little Girl
TTITLE8=Tiajuana Blues
TTITLE9=45 Blues
TTITLE10=Arkansas Woman
TTITLE11=Four Corners of the World
EXTD=
EXTT0=
EXTT1=
EXTT2=
EXTT3=
EXTT4=
EXTT5=
EXTT6=
EXTT7=
EXTT8=
EXTT9=
EXTT10=
EXTT11=
PLAYORDER=
